<?xml version="1.0" encoding="UTF-8" standalone="no"?>
<!-- Created with Inkscape (http://www.inkscape.org/) -->

<svg
   width="210mm"
   height="297mm"
   viewBox="0 0 210 297"
   version="1.1"
   id="svg5"
   xml:space="preserve"
   xmlns="http://www.w3.org/2000/svg"
   xmlns:svg="http://www.w3.org/2000/svg"><defs
     id="defs2" /><g
     id="layer1"><path
       d="m 111.47367,511.28151 c -37.465001,0 -78.925201,-0.26458 -120.6235406,-1.03187 -0.8731204,-0.0265 -1.7197904,-0.0794 -2.5664604,-0.23813 -2.80458,-0.44979 -6.58812,-1.48166 -8.67833,-3.81 -1.77271,-1.98437 -4.52437,-6.42937 -3.09562,-14.20812 0.52916,-2.83104 0.97895,-8.01688 -1.82563,-11.27125 -2.09021,-2.40771 -5.79437,-3.54542 -11.00666,-3.36021 -0.82021,0.0265 -1.95792,0.10583 -3.20146,0.18521 -2.30188,0.15875 -4.68313,0.3175 -6.29709,0.26458 -11.588743,-0.39687 -18.891239,-2.30187 -23.653739,-6.11187 -12.93812,-10.31875 -18.94416,-29.05124 -19.60562,-31.14145 -2.8575,-9.31333 0.635,-17.09208 9.78958,-21.88104 3.59834,-1.87854 6.82625,-2.96334 12.72646,-2.96334 5.90021,0 13.229156,0.1323 18.970619,0.21167 2.61937,0.0529 4.97416,0.0794 6.82625,0.10583 6.79979,-0.1852 8.20208,-1.95791 9.97479,-4.15395 2.88395,-3.59834 5.9002,-6.35 16.1925,-6.35 11.3506204,0 209.708761,1.19062 211.693131,1.21708 1.03188,0 1.74625,-0.50271 2.14313,-0.92604 0.635,-0.68792 1.00541,-1.64042 0.9525,-2.64584 -0.0529,-1.1377 -0.10584,-2.46062 -0.18521,-3.91583 -0.39688,-8.25501 -0.9525,-19.57918 -0.0794,-25.10897 1.48167,-9.3927 7.19667,-12.06499 12.25021,-14.41978 3.20146,-1.50813 6.21771,-2.91042 8.75771,-5.92667 3.14854,-3.75708 2.35479,-10.87438 1.61396,-17.75354 -0.58209,-5.42396 -1.21709,-11.05959 -0.0265,-15.6898 1.45521,-5.74146 5.47687,-9.15458 11.93271,-10.13354 5.74146,-0.87312 14.39333,-1.03187 22.59541,-0.37042 10.26584,0.82021 29.05125,3.3073 38.57625,6.85271 17.56834,6.56167 29.5275,18.46792 35.53355,35.40126 8.41375,23.73312 7.35541,42.73021 6.35,61.09229 -0.29105,5.08 -1.69334,11.80042 -10.6098,11.80042 v 0 c -5.05354,0 -13.70541,-0.3175 -20.6375,-0.58208 -2.59291,-0.10584 -5.08,-0.18521 -7.01145,-0.26459 -2.2225,-0.0794 -4.36563,0.58209 -6.00605,1.87854 -2.91041,2.24896 -3.4925,5.15938 -1.74625,8.91646 0.4498,0.9525 1.03188,2.16959 1.7198,3.59834 2.51354,5.21229 5.97958,12.35603 7.06437,16.37769 3.30729,12.30313 0.89958,24.65917 -6.77333,34.79271 -4.63021,6.13834 -11.08604,11.24479 -18.67959,14.76375 -7.77875,3.65125 -16.80104,5.60917 -26.035,5.715 -2.7252,0.0265 -5.97958,0.0794 -9.73666,0.10584 -25.87625,0.42333 -72.39,0.97895 -127.5821,0.97895 z"
       fill="none"
       stroke="#ffffff"
       stroke-width="2"
       id="path132" /><rect
       style="fill:#ff0000;stroke-width:2.025"
       id="rect351"
       width="2.0243428"
       height="11.856865"
       x="139.96884"
       y="505.50729" /><text
       xml:space="preserve"
       style="font-size:11.959px;line-height:6.26349px;font-family:'Road Rage';-inkscape-font-specification:'Road Rage';fill:#ffffff;stroke-width:1.1441"
       x="-16.673576"
       y="501.79282"
       id="text407"><tspan
         id="tspan405"
         style="fill:#ffffff;stroke-width:1.1441"
         x="-16.673576"
         y="501.79282">1</tspan></text><text
       xml:space="preserve"
       style="font-size:11.959px;line-height:6.26349px;font-family:'Road Rage';-inkscape-font-specification:'Road Rage';fill:#ffffff;stroke-width:1.1441"
       x="-25.347214"
       y="473.10086"
       id="text407-1"><tspan
         id="tspan405-1"
         style="fill:#ffffff;stroke-width:1.1441"
         x="-25.347214"
         y="473.10086">2</tspan></text><text
       xml:space="preserve"
       style="font-size:11.959px;line-height:6.26349px;font-family:'Road Rage';-inkscape-font-specification:'Road Rage';fill:#ffffff;stroke-width:1.1441"
       x="-63.520531"
       y="469.34137"
       id="text407-1-7"><tspan
         id="tspan405-1-9"
         style="fill:#ffffff;stroke-width:1.1441"
         x="-63.520531"
         y="469.34137">3</tspan></text><text
       xml:space="preserve"
       style="font-size:11.959px;line-height:6.26349px;font-family:'Road Rage';-inkscape-font-specification:'Road Rage';fill:#ffffff;stroke-width:1.1441"
       x="-90.704567"
       y="415.84088"
       id="text407-1-7-6"><tspan
         id="tspan405-1-9-7"
         style="fill:#ffffff;stroke-width:1.1441"
         x="-90.704567"
         y="415.84088">4</tspan></text><text
       xml:space="preserve"
       style="font-size:11.959px;line-height:6.26349px;font-family:'Road Rage';-inkscape-font-specification:'Road Rage';fill:#ffffff;stroke-width:1.1441"
       x="-36.039398"
       y="430.29352"
       id="text407-1-7-6-3"><tspan
         id="tspan405-1-9-7-6"
         style="fill:#ffffff;stroke-width:1.1441"
         x="-36.039398"
         y="430.29352">5</tspan></text><text
       xml:space="preserve"
       style="font-size:11.959px;line-height:6.26349px;font-family:'Road Rage';-inkscape-font-specification:'Road Rage';fill:#ffffff;stroke-width:1.1441"
       x="-21.298529"
       y="398.48938"
       id="text407-1-7-6-3-6"><tspan
         id="tspan405-1-9-7-6-3"
         style="fill:#ffffff;stroke-width:1.1441"
         x="-21.298529"
         y="398.48938">6</tspan></text><text
       xml:space="preserve"
       style="font-size:11.959px;line-height:6.26349px;font-family:'Road Rage';-inkscape-font-specification:'Road Rage';fill:#ffffff;stroke-width:1.1441"
       x="205.71706"
       y="414.3949"
       id="text407-1-7-6-3-6-0"><tspan
         id="tspan405-1-9-7-6-3-1"
         style="fill:#ffffff;stroke-width:1.1441"
         x="205.71706"
         y="414.3949">7</tspan></text><text
       xml:space="preserve"
       style="font-size:11.959px;line-height:6.26349px;font-family:'Road Rage';-inkscape-font-specification:'Road Rage';fill:#ffffff;stroke-width:1.1441"
       x="188.37593"
       y="366.9556"
       id="text407-1-7-6-3-6-0-5"><tspan
         id="tspan405-1-9-7-6-3-1-8"
         style="fill:#ffffff;stroke-width:1.1441"
         x="188.37593"
         y="366.9556">8</tspan></text><text
       xml:space="preserve"
       style="font-size:11.959px;line-height:6.26349px;font-family:'Road Rage';-inkscape-font-specification:'Road Rage';fill:#ffffff;stroke-width:1.1441"
       x="229.43178"
       y="358.8696"
       id="text407-1-7-6-3-6-0-5-0"><tspan
         id="tspan405-1-9-7-6-3-1-8-0"
         style="fill:#ffffff;stroke-width:1.1441"
         x="229.43178"
         y="358.8696">9</tspan></text><text
       xml:space="preserve"
       style="font-size:11.959px;line-height:6.26349px;font-family:'Road Rage';-inkscape-font-specification:'Road Rage';fill:#ffffff;stroke-width:1.1441"
       x="211.80443"
       y="304.79269"
       id="text407-1-7-6-3-6-0-5-0-9"><tspan
         id="tspan405-1-9-7-6-3-1-8-0-5"
         style="fill:#ffffff;stroke-width:1.1441"
         x="211.80443"
         y="304.79269">10</tspan></text><text
       xml:space="preserve"
       style="font-size:11.959px;line-height:6.26349px;font-family:'Road Rage';-inkscape-font-specification:'Road Rage';fill:#ffffff;stroke-width:1.1441"
       x="309.53891"
       y="347.59158"
       id="text407-1-7-6-3-6-0-5-0-9-5"><tspan
         id="tspan405-1-9-7-6-3-1-8-0-5-8"
         style="fill:#ffffff;stroke-width:1.1441"
         x="309.53891"
         y="347.59158">11</tspan></text><text
       xml:space="preserve"
       style="font-size:11.959px;line-height:6.26349px;font-family:'Road Rage';-inkscape-font-specification:'Road Rage';fill:#ffffff;stroke-width:1.1441"
       x="316.19919"
       y="415.55069"
       id="text407-1-7-6-3-6-0-5-0-9-5-5"><tspan
         id="tspan405-1-9-7-6-3-1-8-0-5-8-8"
         style="fill:#ffffff;stroke-width:1.1441"
         x="316.19919"
         y="415.55069">12</tspan></text><text
       xml:space="preserve"
       style="font-size:11.959px;line-height:6.26349px;font-family:'Road Rage';-inkscape-font-specification:'Road Rage';fill:#ffffff;stroke-width:1.1441"
       x="273.97668"
       y="427.69131"
       id="text407-1-7-6-3-6-0-5-0-9-5-5-0"><tspan
         id="tspan405-1-9-7-6-3-1-8-0-5-8-8-1"
         style="fill:#ffffff;stroke-width:1.1441"
         x="273.97668"
         y="427.69131">13</tspan></text><text
       xml:space="preserve"
       style="font-size:11.959px;line-height:6.26349px;font-family:'Road Rage';-inkscape-font-specification:'Road Rage';fill:#ffffff;stroke-width:1.1441"
       x="302.3071"
       y="492.18753"
       id="text407-1-7-6-3-6-0-5-0-9-5-5-0-8"><tspan
         id="tspan405-1-9-7-6-3-1-8-0-5-8-8-1-9"
         style="fill:#ffffff;stroke-width:1.1441"
         x="302.3071"
         y="492.18753">14</tspan></text></g></svg>
